<?xml version="1.0" encoding="UTF-8" standalone="no"?>
<svg width="24px" height="24px" viewBox="0 0 24 24" version="1.1" xmlns="http://www.w3.org/2000/svg" xmlns:xlink="http://www.w3.org/1999/xlink" xmlns:sketch="http://www.bohemiancoding.com/sketch/ns">
    <!-- Generator: Sketch 3.0.2 (7799) - http://www.bohemiancoding.com/sketch -->
    <title>globe</title>
    <description>Created with Sketch.</description>
    <defs></defs>
    <g id="Page-1" stroke="none" stroke-width="1" fill="none" fill-rule="evenodd" sketch:type="MSPage">
        <g id="globe" sketch:type="MSArtboardGroup" fill="#000000">
            <path d="M12,2 C6.477,2 2,6.477 2,12 C2,17.522 6.477,22 12,22 C17.522,22 22,17.522 22,12 C22,6.477 17.522,2 12,2 L12,2 Z M11,19.931 C7.055,19.438 4,16.079 4,12 C4,11.383 4.077,10.785 4.208,10.208 L9,15 L9,16 C9,17.104 9.896,18 11,18 L11,19.931 L11,19.931 Z M17.896,17.394 C17.639,16.588 16.892,16 16,16 L15,16 L15,13 C15,12.448 14.553,12 14,12 L8,12 L8,10 L10,10 C10.552,10 11,9.552 11,9 L11,7 L13,7 C14.104,7 15,6.104 15,5 L15,4.587 C17.931,5.775 20,8.644 20,12 C20,14.081 19.198,15.971 17.896,17.394 L17.896,17.394 Z" id="Shape" sketch:type="MSShapeGroup"></path>
        </g>
    </g>
</svg>